<svg width="48" height="48" viewBox="0 0 48 48" fill="none" xmlns="http://www.w3.org/2000/svg">
  <!-- White background circle -->
  <circle cx="24" cy="24" r="24" fill="white"></circle>

  <!-- Centered and scaled icon -->
  <g transform="translate(10, 10) scale(1.4)">
    <path d="M4 2C2.897 2 2 2.897 2 4V20C2 21.103 2.897 22 4 22H20C21.103 22 22 21.103 22 20V4C22 2.897 21.103 2 20 2H4ZM4 4H20L20.002 20H4V4ZM17 6C16.447 6 16 6.447 16 7C16 7.553 16.447 8 17 8C17.553 8 18 7.553 18 7C18 6.447 17.553 6 17 6ZM14 6C13.447 6 13 6.447 13 7C13 7.553 13.447 8 14 8C14.553 8 15 7.553 15 7C15 6.447 14.553 6 14 6ZM12 9C9.243 9 7 11.243 7 14C7 16.757 9.243 19 12 19C14.757 19 17 16.757 17 14C17 11.243 14.757 9 12 9ZM12 11C13.654 11 15 12.346 15 14C15 15.654 13.654 17 12 17C10.346 17 9 15.654 9 14C9 12.346 10.346 11 12 11Z" fill="#74124A"></path>
  </g>
</svg>
