<svg xmlns="http://www.w3.org/2000/svg" xmlns:xlink="http://www.w3.org/1999/xlink" xmlns:inkscape="http://www.inkscape.org/namespaces/inkscape" version="1.1" width="7703.58" height="2894.91" viewBox="0 0 7703.58 2894.91">
<defs>
<clipPath id="clip_0">
<path transform="matrix(1,0,0,-1,0,2894.91)" d="M0 2894.915H7703.578V0H0Z"/>
</clipPath>
</defs>
<g>
<g inkscape:groupmode="layer" inkscape:label="Layer 1">
<g clip-path="url(#clip_0)">
<path transform="matrix(1,0,0,-1,1700.1896,786.1406)" d="M0 0C-364.649 0-661.315-296.667-661.315-661.312-661.315-1025.957-364.649-1322.624 0-1322.624 364.649-1322.624 661.312-1025.957 661.312-661.312 661.312-296.667 364.649 0 0 0M0-1344.354C-376.632-1344.354-683.046-1037.94-683.046-661.312-683.046-284.683-376.632 21.731 0 21.731 376.632 21.731 683.043-284.683 683.043-661.312 683.043-1037.94 376.632-1344.354 0-1344.354" fill="#6b1648"/>
<path transform="matrix(1,0,0,-1,1699.9015,1719.5557)" d="M0 0C-122.529 0-222.293 99.764-222.293 222.371-222.293 344.978-122.529 444.742 0 444.742 122.685 444.742 222.449 344.978 222.449 222.371 222.449 99.764 122.685 0 0 0M-341.249 569.214V-168.138C-341.249-172.1-338.063-175.286-334.1-175.286H334.178C338.141-175.286 341.404-172.1 341.404-168.138V569.214Z" fill="#6b1648"/>
<path transform="matrix(1,0,0,-1,1902.0066,1061.0199)" d="M0 0C-8.38 0-15.197-6.817-15.197-15.197-15.197-23.577-8.38-30.394 0-30.394 8.38-30.394 15.197-23.577 15.197-15.197 15.197-6.817 8.38 0 0 0" fill="#6b1648"/>
<path transform="matrix(1,0,0,-1,1978.3822,1106.6355)" d="M0 0C-16.799 0-30.418 13.619-30.418 30.418-30.418 47.217-16.799 60.836 0 60.836 16.799 60.836 30.418 47.217 30.418 30.418 30.418 13.619 16.799 0 0 0M-76.376 7.448C-89.041 7.448-99.346 17.753-99.346 30.419-99.346 43.084-89.041 53.389-76.376 53.389-63.71 53.389-53.405 43.084-53.405 30.419-53.405 17.753-63.71 7.448-76.376 7.448M-619.729-6.644H62.922975V67.48H-619.729Z" fill="#6b1648"/>
<path transform="matrix(1,0,0,-1,2691.2384,1406.8676)" d="M0 0H65.122L32.563 79.478ZM84.378-47.617H-19.257L-41.662-102.59H-96.635L8.401 144.248H58.122L163.158-102.59H106.788Z" fill="#6b1648"/>
<path transform="matrix(1,0,0,-1,0,2894.91)" d="M2894.657 1630.542H2948.576V1385.452H2894.657Z" fill="#6b1648"/>
<path transform="matrix(1,0,0,-1,3162.3223,1492.8204)" d="M0 0C-16.455-13.428-38.223-20.133-65.295-20.133-84.201-20.133-102.642-16.811-120.615-10.158-138.592-3.504-154.813 6.237-169.282 19.075L-137.421 57.241C-125.75 47.669-113.962 40.318-102.057 35.187-90.156 30.047-77.548 27.48-64.246 27.48-53.277 27.48-44.637 29.518-38.336 33.604-32.034 37.689-28.885 43.354-28.885 50.588V51.291C-28.885 56.192-30.169 60.273-32.732 63.543-35.304 66.809-40.149 69.901-47.266 72.824-54.387 75.739-64.714 78.948-78.25 82.453-96.926 87.354-111.924 92.428-123.239 97.68-134.563 102.933-143.433 110.284-149.852 119.739-156.271 129.194-159.48 141.737-159.48 157.376V158.079C-159.48 172.782-155.802 185.676-148.451 196.766-141.095 207.847-130.942 216.487-117.987 222.676-105.036 228.856-90.273 231.953-73.7 231.953-38.921 231.953-8.574 221.566 17.331 200.791L-10.678 160.178C-33.786 176.282-55.029 184.336-74.399 184.336-84.439 184.336-92.198 182.349-97.68 178.385-103.167 174.413-105.908 169.282-105.908 162.98V162.277C-105.908 156.908-104.455 152.532-101.532 149.149-98.617 145.762-93.539 142.674-86.304 139.872-79.07 137.07-67.98 133.8-53.043 130.066-26.43 123.066-6.827 114.135 5.777 103.284 18.385 92.428 24.687 76.849 24.687 56.543V55.84C24.687 32.034 16.459 13.419 0 0" fill="#6b1648"/>
<path transform="matrix(1,0,0,-1,3387.2755,1411.0702)" d="M0 0H-99.433V-98.387H-153.352V146.703H-99.433V49.716H0V146.703H53.919V-98.387H0Z" fill="#6b1648"/>
<path transform="matrix(1,0,0,-1,3575.6405,1406.8676)" d="M0 0H65.122L32.563 79.478ZM84.378-47.617H-19.257L-41.662-102.59H-96.635L8.401 144.248H58.122L163.158-102.59H106.788Z" fill="#6b1648"/>
<path transform="matrix(1,0,0,-1,4142.4865,1348.7503)" d="M0 0C-6.193 11.207-14.885 19.959-26.083 26.261-37.291 32.563-50.128 35.716-64.597 35.716H-106.268V-112.036H-64.597C-50.128-112.036-37.291-108.944-26.083-102.759-14.885-96.574-6.193-87.939 0-76.849 6.176-65.764 9.272-53.099 9.272-38.861V-38.162C9.272-23.928 6.176-11.203 0 0M49.018-100.482C37.924-119.158 22.518-133.869 2.802-144.599-16.932-155.338-39.39-160.707-64.597-160.707H-160.178V84.383H-64.597C-39.39 84.383-16.932 79.07 2.802 68.453 22.518 57.827 37.924 43.241 49.018 24.687 60.095 6.128 65.646-14.59 65.646-37.46V-38.162C65.646-61.041 60.095-81.811 49.018-100.482" fill="#6b1648"/>
<path transform="matrix(1,0,0,-1,4394.741,1321.9642)" d="M0 0C-7.468 5.95-17.852 8.93-31.158 8.93H-84.729V-61.444H-30.108C-17.27-61.444-7.173-58.295 .182-51.993 7.529-45.692 11.207-37.286 11.207-26.786V-26.083C11.207-14.651 7.469-5.951 0 0M-42.365-109.061H-84.729V-187.493H-138.64V57.597H-26.604C2.333 57.597 24.973 50.419 41.315 36.063 57.649 21.707 65.829 1.926 65.829-23.282V-23.984C65.829-43.124 61.153-59.054 51.82-71.775 42.486-84.5 29.64-93.894 13.307-99.957L73.176-187.493H10.158Z" fill="#6b1648"/>
<path transform="matrix(1,0,0,-1,4623.3767,1509.4577)" d="M0 0H-53.919V96.64L-148.104 245.09H-85.077L-26.612 146.703 32.91 245.09H94.185L0 97.689Z" fill="#6b1648"/>
<path transform="matrix(1,0,0,-1,4930.416,1502.631)" d="M0 0C-15.527-7.347-34.488-11.025-56.894-11.025-80.479-11.025-101.835-5.421-120.971 5.777-140.115 16.984-155.164 32.216-166.137 51.473-177.11 70.73-182.592 91.912-182.592 115.02V115.719C-182.592 138.827-177.162 160.065-166.311 179.444-155.459 198.813-140.288 214.158-120.797 225.482-101.306 236.802-79.308 242.462-54.795 242.462-33.092 242.462-14.65 239.252 .521 232.833 15.692 226.41 29.467 217.02 41.836 204.651L7.529 165.088C-2.515 174.191-12.551 181.07-22.587 185.745-32.624 190.412-43.475 192.746-55.15 192.746-68.682 192.746-80.878 189.298-91.729 182.419-102.59 175.532-111.047 166.311-117.119 154.757-123.191 143.203-126.218 130.426-126.218 116.421V115.719C-126.218 101.714-123.191 88.815-117.119 77.031-111.047 65.243-102.65 55.905-91.912 49.022-81.173 42.131-68.925 38.687-55.15 38.687-42.079 38.687-30.759 41.02-21.182 45.696-11.615 50.363-1.466 57.601 9.273 67.403L43.588 32.736C30.048 18.268 15.519 7.356 0 0" fill="#6b1648"/>
<path transform="matrix(1,0,0,-1,5017.072,1264.3674)" d="M0 0H53.91V-196.072H176.104V-245.09H0Z" fill="#6b1648"/>
<path transform="matrix(1,0,0,-1,5233.7976,1264.3674)" d="M0 0H184.856V-47.969H53.563V-97.685H169.104V-145.653H53.563V-197.122H186.608V-245.09H0Z" fill="#6b1648"/>
<path transform="matrix(1,0,0,-1,5543.996,1406.8676)" d="M0 0H65.126L32.563 79.478ZM84.383-47.617H-19.257L-41.662-102.59H-96.631L8.405 144.248H58.117L163.153-102.59H106.789Z" fill="#6b1648"/>
<path transform="matrix(1,0,0,-1,5798.1857,1353.6513)" d="M0 0V-155.806H-53.216V89.284H-3.504L111.333-61.622V89.284H164.55V-155.806H118.689Z" fill="#6b1648"/>
<path transform="matrix(1,0,0,-1,6021.5646,1264.3674)" d="M0 0H184.856V-47.969H53.563V-97.685H169.104V-145.653H53.563V-197.122H186.608V-245.09H0Z" fill="#6b1648"/>
<path transform="matrix(1,0,0,-1,6394.79,1321.9642)" d="M0 0C-7.468 5.95-17.852 8.93-31.158 8.93H-84.73V-61.444H-30.108C-17.271-61.444-7.173-58.295 .182-51.993 7.529-45.692 11.207-37.286 11.207-26.786V-26.083C11.207-14.651 7.469-5.951 0 0M-42.365-109.061H-84.73V-187.493H-138.64V57.597H-26.604C2.333 57.597 24.973 50.419 41.315 36.063 57.649 21.707 65.829 1.926 65.829-23.282V-23.984C65.829-43.124 61.153-59.054 51.82-71.775 42.486-84.5 29.64-93.894 13.306-99.957L73.176-187.493H10.158Z" fill="#6b1648"/>
<path transform="matrix(1,0,0,-1,6661.757,1492.8204)" d="M0 0C-16.455-13.428-38.228-20.133-65.3-20.133-84.209-20.133-102.651-16.811-120.615-10.158-138.597-3.504-154.818 6.237-169.286 19.075L-137.426 57.241C-125.759 47.669-113.971 40.318-102.061 35.187-90.16 30.047-77.557 27.48-64.25 27.48-53.277 27.48-44.646 29.518-38.34 33.604-32.043 37.689-28.885 43.354-28.885 50.588V51.291C-28.885 56.192-30.169 60.273-32.737 63.543-35.313 66.809-40.153 69.901-47.266 72.824-54.388 75.739-64.719 78.948-78.25 82.453-96.935 87.354-111.924 92.428-123.244 97.68-134.572 102.933-143.437 110.284-149.856 119.739-156.275 129.194-159.484 141.737-159.484 157.376V158.079C-159.484 172.782-155.807 185.676-148.451 196.766-141.104 207.847-130.946 216.487-117.996 222.676-105.036 228.856-90.282 231.953-73.705 231.953-38.93 231.953-8.579 221.566 17.331 200.791L-10.678 160.178C-33.786 176.282-55.029 184.336-74.399 184.336-84.444 184.336-92.207 182.349-97.689 178.385-103.171 174.413-105.913 169.282-105.913 162.98V162.277C-105.913 156.908-104.455 152.532-101.541 149.149-98.617 145.762-93.543 142.674-86.309 139.872-79.074 137.07-67.989 133.8-53.043 130.066-26.439 123.066-6.827 114.135 5.777 103.284 18.38 92.428 24.678 76.849 24.678 56.543V55.84C24.678 32.034 16.455 13.419 0 0" fill="#6b1648"/>
<path transform="matrix(1,0,0,-1,5696.0466,1748.0942)" d="M0 0C-8.761-7.147-20.358-10.721-34.783-10.721-44.854-10.721-54.682-8.952-64.258-5.404-73.835-1.865-82.474 3.331-90.186 10.166L-73.21 30.499C-66.991 25.398-60.71 21.486-54.37 18.754-48.029 16.013-41.315 14.651-34.228 14.651-28.382 14.651-23.776 15.735-20.419 17.912-17.062 20.081-15.388 23.099-15.388 26.959V27.333C-15.388 29.943-16.073 32.112-17.435 33.856-18.806 35.599-21.391 37.247-25.181 38.8-28.972 40.353-34.48 42.07-41.688 43.935-51.637 46.546-59.626 49.244-65.655 52.045-71.692 54.847-76.411 58.759-79.829 63.799-83.255 68.83-84.964 75.518-84.964 83.845V84.218C-84.964 92.06-83.003 98.93-79.083 104.837-75.17 110.735-69.758 115.341-62.862 118.637-55.957 121.934-48.09 123.582-39.259 123.582-20.731 123.582-4.571 118.048 9.238 106.979L-5.69 85.346C-17.999 93.925-29.31 98.21-39.632 98.21-44.984 98.21-49.122 97.151-52.037 95.043-54.959 92.927-56.426 90.195-56.426 86.838V86.465C-56.426 83.602-55.645 81.269-54.092 79.465-52.54 77.66-49.833 76.012-45.973 74.52-42.122 73.028-36.215 71.285-28.26 69.298-14.078 65.568-3.634 60.815 3.08 55.029 9.793 49.244 13.15 40.951 13.15 30.126V29.753C13.15 17.071 8.77 7.156 0 0" fill="#6b1648"/>
<path transform="matrix(1,0,0,-1,0,2894.91)" d="M5735.506 1268.532H5764.226V1137.959H5735.506Z" fill="#6b1648"/>
<path transform="matrix(1,0,0,-1,5825.223,1673.9469)" d="M0 0V-83.004H-28.356V47.569H-1.865L59.314-32.823V47.569H87.67V-83.004H63.235Z" fill="#6b1648"/>
<path transform="matrix(1,0,0,-1,6035.7209,1753.316)" d="M0 0C-8.275-3.912-18.372-5.872-30.308-5.872-42.877-5.872-54.249-2.889-64.45 3.079-74.642 9.047-82.666 17.166-88.512 27.419-94.358 37.681-97.273 48.966-97.273 61.275V61.648C-97.273 73.965-94.384 85.276-88.599 95.599-82.822 105.921-74.737 114.092-64.354 120.129-53.971 126.158-42.252 129.177-29.189 129.177-17.626 129.177-7.807 127.468 .277 124.041 8.362 120.624 15.7 115.619 22.292 109.026L4.007 87.948C-1.336 92.806-6.688 96.466-12.031 98.956-17.383 101.445-23.16 102.685-29.38 102.685-36.588 102.685-43.085 100.855-48.871 97.186-54.656 93.517-59.158 88.607-62.394 82.448-65.629 76.29-67.243 69.489-67.243 62.021V61.648C-67.243 54.188-65.629 47.318-62.394 41.038-59.158 34.758-54.683 29.787-48.966 26.118-43.25 22.449-36.718 20.619-29.38 20.619-22.415 20.619-16.386 21.859-11.285 24.349-6.185 26.829-.781 30.689 4.944 35.911L23.221 17.444C16.013 9.732 8.267 3.921 0 0" fill="#6b1648"/>
<path transform="matrix(1,0,0,-1,6081.885,1626.3775)" d="M0 0H98.487V-25.554H28.538V-52.045H90.099V-77.6H28.538V-105.019H99.424V-130.573H0Z" fill="#6b1648"/>
<path transform="matrix(1,0,0,-1,6308.707,1625.4494)" d="M0 0V-131.501H-28.347V-29.093L-51.108-34.688-57.076-11.19-19.586 0Z" fill="#6b1648"/>
<path transform="matrix(1,0,0,-1,6403.8376,1654.3605)" d="M0 0C-4.103 3.73-9.707 5.595-16.793 5.595-23.759 5.595-29.198 3.765-33.11 .095-37.03-3.574-38.991-8.388-38.991-14.365-38.991-20.332-36.935-25.121-32.832-28.72-28.729-32.329-23.195-34.133-16.229-34.133-9.264-34.133-3.799-32.329 .182-28.72 4.164-25.121 6.15-20.393 6.15-14.547 6.15-8.579 4.103-3.73 0 0M28.815-70.973C24.4-81.729 17.93-90.065 9.42-95.972 .894-101.879-9.455-104.828-21.642-104.828-30.594-104.828-38.496-103.492-45.332-100.821-52.167-98.149-58.577-94.324-64.545-89.345L-49.435-67.52C-44.585-71.502-39.954-74.364-35.539-76.099-31.123-77.843-26.24-78.71-20.896-78.71-13.185-78.71-7.087-76.038-2.611-70.695 1.865-65.352 4.597-58.135 5.595-49.053-1.371-55.021-10.201-58.013-20.896-58.013-35.2-58.013-46.546-54.249-54.934-46.728-63.331-39.199-67.529-28.851-67.529-15.666-67.529-6.965-65.413 .867-61.188 7.833-56.955 14.798-51.083 20.272-43.562 24.253-36.033 28.226-27.419 30.221-17.722 30.221-9.143 30.221-1.96 29.102 3.825 26.864 9.602 24.626 14.98 21.018 19.959 16.047 24.93 11.068 28.755 4.667 31.427-3.166 34.098-11.008 35.434-21.078 35.434-33.387 35.434-47.691 33.231-60.217 28.815-70.973" fill="#6b1648"/>
<path transform="matrix(1,0,0,-1,6527.3239,1654.3605)" d="M0 0C-4.103 3.73-9.707 5.595-16.793 5.595-23.759 5.595-29.198 3.765-33.11 .095-37.03-3.574-38.991-8.388-38.991-14.365-38.991-20.332-36.935-25.121-32.832-28.72-28.729-32.329-23.195-34.133-16.229-34.133-9.264-34.133-3.799-32.329 .182-28.72 4.164-25.121 6.15-20.393 6.15-14.547 6.15-8.579 4.103-3.73 0 0M28.815-70.973C24.4-81.729 17.929-90.065 9.42-95.972 .893-101.879-9.455-104.828-21.643-104.828-30.594-104.828-38.497-103.492-45.332-100.821-52.167-98.149-58.577-94.324-64.545-89.345L-49.435-67.52C-44.586-71.502-39.954-74.364-35.539-76.099-31.124-77.843-26.24-78.71-20.896-78.71-13.185-78.71-7.087-76.038-2.611-70.695 1.865-65.352 4.597-58.135 5.595-49.053-1.371-55.021-10.201-58.013-20.896-58.013-35.2-58.013-46.546-54.249-54.934-46.728-63.331-39.199-67.529-28.851-67.529-15.666-67.529-6.965-65.413 .867-61.188 7.833-56.955 14.798-51.083 20.272-43.562 24.253-36.033 28.226-27.419 30.221-17.722 30.221-9.143 30.221-1.96 29.102 3.825 26.864 9.602 24.626 14.98 21.018 19.959 16.047 24.93 11.068 28.755 4.667 31.427-3.166 34.098-11.008 35.434-21.078 35.434-33.387 35.434-47.691 33.231-60.217 28.815-70.973" fill="#6b1648"/>
<path transform="matrix(1,0,0,-1,6677.665,1626.3775)" d="M0 0V-21.642L-58.568-130.573H-91.027L-32.641-24.808H-94.011V0Z" fill="#6b1648"/>
</g>
</g>
</g>
</svg>
